<svg width="24" height="24" viewBox="0 0 24 24" fill="none" xmlns="http://www.w3.org/2000/svg">
<path fill-rule="evenodd" clip-rule="evenodd" d="M9.71429 5.71429H17.7143C17.8658 5.71429 18.0112 5.77449 18.1183 5.88165C18.2255 5.98882 18.2857 6.13416 18.2857 6.28571V17.7143C18.2857 17.8658 18.2255 18.0112 18.1183 18.1183C18.0112 18.2255 17.8658 18.2857 17.7143 18.2857H9.71429V5.71429ZM8 5.71429H6.28571C6.13416 5.71429 5.98882 5.77449 5.88165 5.88165C5.77449 5.98882 5.71429 6.13416 5.71429 6.28571V17.7143C5.71429 17.8658 5.77449 18.0112 5.88165 18.1183C5.98882 18.2255 6.13416 18.2857 6.28571 18.2857H8V5.71429ZM4 6.28571C4 5.67951 4.24082 5.09812 4.66947 4.66947C5.09812 4.24082 5.67951 4 6.28571 4H17.7143C18.3205 4 18.9019 4.24082 19.3305 4.66947C19.7592 5.09812 20 5.67951 20 6.28571V17.7143C20 18.3205 19.7592 18.9019 19.3305 19.3305C18.9019 19.7592 18.3205 20 17.7143 20H6.28571C5.67951 20 5.09812 19.7592 4.66947 19.3305C4.24082 18.9019 4 18.3205 4 17.7143V6.28571Z" fill="#A6A6A6"/>
</svg>
